<?xml version="1.0" encoding="UTF-8"?>
<svg xmlns="http://www.w3.org/2000/svg" xmlns:xlink="http://www.w3.org/1999/xlink" width="37.5pt" height="37.499999pt" viewBox="0 0 37.5 37.499999" version="1.2">
<defs>
<clipPath id="clip1">
  <path d="M 2.441406 0 L 34.332031 0 L 34.332031 37.007812 L 2.441406 37.007812 Z M 2.441406 0 "/>
</clipPath>
</defs>
<g id="surface1">
<g clip-path="url(#clip1)" clip-rule="nonzero">
<path style=" stroke:none;fill-rule:nonzero;fill:rgb(89.408875%,30.198669%,14.898682%);fill-opacity:1;" d="M 5.335938 33.523438 L 2.433594 -0.289062 L 34.339844 -0.289062 L 31.433594 33.519531 L 18.367188 37.277344 Z M 5.335938 33.523438 "/>
</g>
<path style=" stroke:none;fill-rule:nonzero;fill:rgb(94.509888%,39.608765%,16.079712%);fill-opacity:1;" d="M 28.945312 31.363281 L 31.429688 2.472656 L 18.386719 2.472656 L 18.386719 34.40625 Z M 28.945312 31.363281 "/>
<path style=" stroke:none;fill-rule:nonzero;fill:rgb(92.158508%,92.158508%,92.158508%);fill-opacity:1;" d="M 18.375 6.621094 L 8.371094 6.621094 L 9.445312 19.164062 L 18.386719 19.164062 L 18.386719 15.015625 L 13.101562 15.015625 L 12.734375 10.769531 L 18.386719 10.769531 L 18.386719 6.621094 Z M 18.386719 25.773438 L 18.371094 25.777344 L 13.921875 24.53125 L 13.636719 21.222656 L 9.625 21.222656 L 10.183594 27.734375 L 18.367188 30.082031 L 18.386719 30.074219 Z M 18.386719 25.773438 "/>
<path style=" stroke:none;fill-rule:nonzero;fill:rgb(100%,100%,100%);fill-opacity:1;" d="M 18.375 19.164062 L 23.292969 19.164062 L 22.839844 24.539062 L 18.382812 25.789062 L 18.382812 30.101562 L 26.574219 27.746094 L 27.671875 15.011719 L 18.386719 15.011719 Z M 28.285156 7.734375 L 28.378906 6.621094 L 18.371094 6.621094 L 18.371094 10.769531 L 28.019531 10.769531 L 28.097656 9.835938 Z M 28.285156 7.734375 "/>
</g>
</svg>
