<?xml version="1.0" encoding="UTF-8"?>
<svg xmlns="http://www.w3.org/2000/svg" xmlns:xlink="http://www.w3.org/1999/xlink" width="37.5pt" height="37.499999pt" viewBox="0 0 37.5 37.499999" version="1.2">
<defs>
<clipPath id="clip1">
  <path d="M 0 0 L 37.007812 0 L 37.007812 37.007812 L 0 37.007812 Z M 0 0 "/>
</clipPath>
</defs>
<g id="surface1">
<g clip-path="url(#clip1)" clip-rule="nonzero">
<path style=" stroke:none;fill-rule:nonzero;fill:rgb(100%,83.918762%,0%);fill-opacity:1;" d="M 0 0 L 37.5 0 L 37.5 37.5 L 0 37.5 Z M 0 0 "/>
</g>
<path style=" stroke:none;fill-rule:nonzero;fill:rgb(0%,0%,0.389099%);fill-opacity:1;" d="M 24.519531 28.070312 C 25.238281 29.242188 26.023438 30.363281 27.683594 30.363281 C 29.074219 30.363281 29.808594 29.667969 29.808594 28.710938 C 29.808594 27.566406 29.050781 27.15625 27.519531 26.488281 L 26.675781 26.132812 C 24.25 25.101562 22.636719 23.8125 22.636719 21.089844 C 22.636719 18.578125 24.558594 16.667969 27.5625 16.667969 C 29.699219 16.667969 31.238281 17.410156 32.347656 19.347656 L 29.726562 21.023438 C 29.152344 19.992188 28.527344 19.585938 27.5625 19.585938 C 26.578125 19.585938 25.953125 20.210938 25.953125 21.023438 C 25.953125 22.027344 26.578125 22.433594 28.019531 23.054688 L 28.863281 23.414062 C 31.722656 24.628906 33.332031 25.875 33.332031 28.667969 C 33.332031 31.683594 30.953125 33.332031 27.761719 33.332031 C 24.636719 33.332031 22.863281 31.765625 21.875 29.824219 Z M 12.449219 28.15625 C 12.976562 29.097656 13.777344 29.824219 14.929688 29.824219 C 16.03125 29.824219 16.667969 29.390625 16.667969 27.695312 L 16.667969 16.667969 L 20.136719 16.667969 L 20.136719 28.230469 C 20.136719 31.738281 18.105469 33.332031 15.132812 33.332031 C 12.449219 33.332031 10.511719 31.515625 9.722656 29.824219 Z M 12.449219 28.15625 "/>
</g>
</svg>
