<?xml version="1.0" encoding="UTF-8"?>
<svg xmlns="http://www.w3.org/2000/svg" xmlns:xlink="http://www.w3.org/1999/xlink" width="75pt" height="74.999997pt" viewBox="0 0 75 74.999997" version="1.2">
<g id="surface1">
<path style=" stroke:none;fill-rule:nonzero;fill:rgb(90.19928%,91.369629%,92.939758%);fill-opacity:1;" d="M 3.570312 6.777344 L 5.953125 6.777344 L 5.953125 46.074219 L 3.570312 46.074219 Z M 3.570312 6.777344 "/>
<path style=" stroke:none;fill-rule:nonzero;fill:rgb(26.269531%,29.019165%,32.939148%);fill-opacity:1;" d="M 5.953125 6.789062 L 71.429688 6.789062 L 71.429688 46.0625 L 5.953125 46.0625 Z M 5.953125 6.789062 "/>
<path style=" stroke:none;fill-rule:nonzero;fill:rgb(79.998779%,81.959534%,85.099792%);fill-opacity:1;" d="M 39.285156 53.800781 C 39.285156 54.039062 39.242188 54.265625 39.148438 54.484375 C 39.058594 54.703125 38.929688 54.894531 38.761719 55.0625 C 38.59375 55.230469 38.402344 55.359375 38.183594 55.449219 C 37.964844 55.542969 37.738281 55.585938 37.5 55.585938 C 37.261719 55.585938 37.035156 55.542969 36.816406 55.449219 C 36.597656 55.359375 36.40625 55.230469 36.238281 55.0625 C 36.070312 54.894531 35.941406 54.703125 35.851562 54.484375 C 35.757812 54.265625 35.714844 54.039062 35.714844 53.800781 C 35.714844 53.5625 35.757812 53.335938 35.851562 53.117188 C 35.941406 52.898438 36.070312 52.707031 36.238281 52.539062 C 36.40625 52.371094 36.597656 52.242188 36.816406 52.152344 C 37.035156 52.0625 37.261719 52.015625 37.5 52.015625 C 37.738281 52.015625 37.964844 52.0625 38.183594 52.152344 C 38.402344 52.242188 38.59375 52.371094 38.761719 52.539062 C 38.929688 52.707031 39.058594 52.898438 39.148438 53.117188 C 39.242188 53.335938 39.285156 53.5625 39.285156 53.800781 Z M 39.285156 53.800781 "/>
<path style=" stroke:none;fill-rule:nonzero;fill:rgb(79.998779%,81.959534%,85.099792%);fill-opacity:1;" d="M 75 54.421875 L 75 56.777344 C 75 58.789062 73.4375 60.347656 71.429688 60.347656 C 70.582031 60.347656 58.773438 60.347656 45.226562 60.347656 C 40.15625 60.347656 34.84375 60.347656 29.773438 60.347656 C 16.226562 60.347656 4.417969 60.347656 3.570312 60.347656 C 1.5625 60.347656 0 58.789062 0 56.777344 L 0 54.421875 C 0 56.382812 1.605469 57.992188 3.570312 57.992188 L 71.429688 57.992188 C 73.394531 57.992188 75 56.382812 75 54.421875 Z M 75 54.421875 "/>
<path style=" stroke:none;fill-rule:nonzero;fill:rgb(79.998779%,81.959534%,85.099792%);fill-opacity:1;" d="M 45.226562 60.347656 L 47.605469 71.0625 L 27.394531 71.0625 L 29.773438 60.347656 C 34.84375 60.347656 40.15625 60.347656 45.226562 60.347656 Z M 45.226562 60.347656 "/>
<path style=" stroke:none;fill-rule:nonzero;fill:rgb(90.19928%,91.369629%,92.939758%);fill-opacity:1;" d="M 37.5 49.632812 L 0 49.632812 L 0 54.421875 C 0 56.382812 1.605469 57.992188 3.570312 57.992188 L 71.429688 57.992188 C 73.394531 57.992188 75 56.382812 75 54.421875 L 75 49.632812 Z M 37.5 55.585938 C 36.511719 55.585938 35.714844 54.789062 35.714844 53.800781 C 35.714844 52.8125 36.511719 52.015625 37.5 52.015625 C 38.488281 52.015625 39.285156 52.8125 39.285156 53.800781 C 39.285156 54.789062 38.488281 55.585938 37.5 55.585938 Z M 37.5 55.585938 "/>
<path style=" stroke:none;fill-rule:nonzero;fill:rgb(39.608765%,42.749023%,47.059631%);fill-opacity:1;" d="M 75 6.800781 L 75 49.632812 L 0 49.632812 L 0 6.800781 C 0 4.839844 1.605469 3.230469 3.570312 3.230469 L 71.429688 3.230469 C 73.394531 3.230469 75 4.835938 75 6.800781 Z M 71.429688 46.0625 L 71.429688 6.777344 L 3.570312 6.777344 L 3.570312 46.0625 Z M 71.429688 46.0625 "/>
<path style=" stroke:none;fill-rule:nonzero;fill:rgb(66.668701%,69.799805%,74.119568%);fill-opacity:1;" d="M 45.492188 61.539062 L 45.226562 60.347656 C 40.15625 60.347656 34.84375 60.347656 29.773438 60.347656 L 29.507812 61.539062 Z M 45.492188 61.539062 "/>
<path style=" stroke:none;fill-rule:nonzero;fill:rgb(90.19928%,91.369629%,92.939758%);fill-opacity:1;" d="M 49.40625 71.652344 L 25.59375 71.652344 C 25.265625 71.652344 25 71.382812 25 71.054688 C 25 70.726562 25.265625 70.460938 25.59375 70.460938 L 49.40625 70.460938 C 49.734375 70.460938 50 70.726562 50 71.054688 C 50 71.382812 49.734375 71.652344 49.40625 71.652344 Z M 49.40625 71.652344 "/>
<path style=" stroke:none;fill-rule:nonzero;fill:rgb(100%,80.778503%,32.939148%);fill-opacity:1;" d="M 14.285156 10.957031 L 9.523438 10.957031 C 9.195312 10.957031 8.929688 10.6875 8.929688 10.359375 C 8.929688 10.03125 9.195312 9.765625 9.523438 9.765625 L 14.285156 9.765625 C 14.613281 9.765625 14.882812 10.03125 14.882812 10.359375 C 14.882812 10.6875 14.613281 10.957031 14.285156 10.957031 Z M 14.285156 10.957031 "/>
<path style=" stroke:none;fill-rule:nonzero;fill:rgb(67.449951%,57.249451%,92.549133%);fill-opacity:1;" d="M 35.714844 14.527344 L 19.046875 14.527344 C 18.71875 14.527344 18.453125 14.261719 18.453125 13.933594 C 18.453125 13.605469 18.71875 13.335938 19.046875 13.335938 L 35.714844 13.335938 C 36.042969 13.335938 36.308594 13.605469 36.308594 13.933594 C 36.308594 14.261719 36.042969 14.527344 35.714844 14.527344 Z M 35.714844 14.527344 "/>
<path style=" stroke:none;fill-rule:nonzero;fill:rgb(67.449951%,57.249451%,92.549133%);fill-opacity:1;" d="M 16.667969 14.527344 L 10.714844 14.527344 C 10.386719 14.527344 10.117188 14.261719 10.117188 13.933594 C 10.117188 13.605469 10.386719 13.335938 10.714844 13.335938 L 16.667969 13.335938 C 16.996094 13.335938 17.261719 13.605469 17.261719 13.933594 C 17.261719 14.261719 16.996094 14.527344 16.667969 14.527344 Z M 16.667969 14.527344 "/>
<path style=" stroke:none;fill-rule:nonzero;fill:rgb(36.468506%,61.178589%,92.549133%);fill-opacity:1;" d="M 50 18.097656 L 34.523438 18.097656 C 34.195312 18.097656 33.929688 17.832031 33.929688 17.503906 C 33.929688 17.175781 34.195312 16.910156 34.523438 16.910156 L 50 16.910156 C 50.328125 16.910156 50.59375 17.175781 50.59375 17.503906 C 50.59375 17.832031 50.328125 18.097656 50 18.097656 Z M 50 18.097656 "/>
<path style=" stroke:none;fill-rule:nonzero;fill:rgb(36.468506%,61.178589%,92.549133%);fill-opacity:1;" d="M 57.144531 18.097656 L 52.382812 18.097656 C 52.050781 18.097656 51.785156 17.832031 51.785156 17.503906 C 51.785156 17.175781 52.050781 16.910156 52.382812 16.910156 L 57.144531 16.910156 C 57.472656 16.910156 57.738281 17.175781 57.738281 17.503906 C 57.738281 17.832031 57.472656 18.097656 57.144531 18.097656 Z M 57.144531 18.097656 "/>
<path style=" stroke:none;fill-rule:nonzero;fill:rgb(36.468506%,61.178589%,92.549133%);fill-opacity:1;" d="M 32.144531 18.097656 L 11.90625 18.097656 C 11.578125 18.097656 11.308594 17.832031 11.308594 17.503906 C 11.308594 17.175781 11.578125 16.910156 11.90625 16.910156 L 32.144531 16.910156 C 32.472656 16.910156 32.738281 17.175781 32.738281 17.503906 C 32.738281 17.832031 32.472656 18.097656 32.144531 18.097656 Z M 32.144531 18.097656 "/>
<path style=" stroke:none;fill-rule:nonzero;fill:rgb(92.939758%,33.329773%,39.608765%);fill-opacity:1;" d="M 17.859375 25.242188 L 14.289062 25.242188 C 13.960938 25.242188 13.691406 24.976562 13.691406 24.644531 C 13.691406 24.316406 13.960938 24.050781 14.289062 24.050781 L 17.859375 24.050781 C 18.1875 24.050781 18.453125 24.316406 18.453125 24.644531 C 18.453125 24.976562 18.1875 25.242188 17.859375 25.242188 Z M 17.859375 25.242188 "/>
<path style=" stroke:none;fill-rule:nonzero;fill:rgb(92.939758%,33.329773%,39.608765%);fill-opacity:1;" d="M 37.910156 25.242188 L 20.242188 25.242188 C 19.910156 25.242188 19.644531 24.976562 19.644531 24.644531 C 19.644531 24.316406 19.910156 24.050781 20.242188 24.050781 L 37.910156 24.050781 C 38.242188 24.050781 38.507812 24.316406 38.507812 24.644531 C 38.507812 24.976562 38.242188 25.242188 37.910156 25.242188 Z M 37.910156 25.242188 "/>
<path style=" stroke:none;fill-rule:nonzero;fill:rgb(62.748718%,83.139038%,40.779114%);fill-opacity:1;" d="M 40.476562 21.671875 L 13.09375 21.671875 C 12.765625 21.671875 12.5 21.402344 12.5 21.074219 C 12.5 20.746094 12.765625 20.480469 13.09375 20.480469 L 40.476562 20.480469 C 40.804688 20.480469 41.070312 20.746094 41.070312 21.074219 C 41.070312 21.402344 40.804688 21.671875 40.476562 21.671875 Z M 40.476562 21.671875 "/>
<path style=" stroke:none;fill-rule:nonzero;fill:rgb(30.979919%,75.689697%,91.369629%);fill-opacity:1;" d="M 41.667969 28.8125 L 30.953125 28.8125 C 30.625 28.8125 30.359375 28.546875 30.359375 28.21875 C 30.359375 27.890625 30.625 27.621094 30.953125 27.621094 L 41.667969 27.621094 C 41.996094 27.621094 42.265625 27.890625 42.265625 28.21875 C 42.265625 28.546875 41.996094 28.8125 41.667969 28.8125 Z M 41.667969 28.8125 "/>
<path style=" stroke:none;fill-rule:nonzero;fill:rgb(62.748718%,83.139038%,40.779114%);fill-opacity:1;" d="M 33.335938 32.382812 L 13.097656 32.382812 C 12.769531 32.382812 12.503906 32.117188 12.503906 31.789062 C 12.503906 31.460938 12.769531 31.195312 13.097656 31.195312 L 33.335938 31.195312 C 33.664062 31.195312 33.929688 31.460938 33.929688 31.789062 C 33.929688 32.117188 33.664062 32.382812 33.335938 32.382812 Z M 33.335938 32.382812 "/>
<path style=" stroke:none;fill-rule:nonzero;fill:rgb(67.449951%,57.249451%,92.549133%);fill-opacity:1;" d="M 20.238281 39.527344 L 10.714844 39.527344 C 10.386719 39.527344 10.117188 39.261719 10.117188 38.933594 C 10.117188 38.605469 10.386719 38.335938 10.714844 38.335938 L 20.238281 38.335938 C 20.566406 38.335938 20.832031 38.605469 20.832031 38.933594 C 20.832031 39.261719 20.566406 39.527344 20.238281 39.527344 Z M 20.238281 39.527344 "/>
<path style=" stroke:none;fill-rule:nonzero;fill:rgb(36.468506%,61.178589%,92.549133%);fill-opacity:1;" d="M 44.046875 35.957031 L 27.382812 35.957031 C 27.050781 35.957031 26.785156 35.6875 26.785156 35.359375 C 26.785156 35.03125 27.050781 34.765625 27.382812 34.765625 L 44.046875 34.765625 C 44.375 34.765625 44.644531 35.03125 44.644531 35.359375 C 44.644531 35.6875 44.375 35.957031 44.046875 35.957031 Z M 44.046875 35.957031 "/>
<path style=" stroke:none;fill-rule:nonzero;fill:rgb(36.468506%,61.178589%,92.549133%);fill-opacity:1;" d="M 47.617188 35.957031 L 46.429688 35.957031 C 46.101562 35.957031 45.832031 35.6875 45.832031 35.359375 C 45.832031 35.03125 46.101562 34.765625 46.429688 34.765625 L 47.617188 34.765625 C 47.949219 34.765625 48.214844 35.03125 48.214844 35.359375 C 48.214844 35.6875 47.949219 35.957031 47.617188 35.957031 Z M 47.617188 35.957031 "/>
<path style=" stroke:none;fill-rule:nonzero;fill:rgb(36.468506%,61.178589%,92.549133%);fill-opacity:1;" d="M 25 35.957031 L 11.90625 35.957031 C 11.578125 35.957031 11.308594 35.6875 11.308594 35.359375 C 11.308594 35.03125 11.578125 34.765625 11.90625 34.765625 L 25 34.765625 C 25.328125 34.765625 25.59375 35.03125 25.59375 35.359375 C 25.59375 35.6875 25.328125 35.957031 25 35.957031 Z M 25 35.957031 "/>
<path style=" stroke:none;fill-rule:nonzero;fill:rgb(100%,80.778503%,32.939148%);fill-opacity:1;" d="M 14.285156 43.097656 L 9.523438 43.097656 C 9.195312 43.097656 8.929688 42.832031 8.929688 42.503906 C 8.929688 42.175781 9.195312 41.910156 9.523438 41.910156 L 14.285156 41.910156 C 14.613281 41.910156 14.882812 42.175781 14.882812 42.503906 C 14.882812 42.832031 14.613281 43.097656 14.285156 43.097656 Z M 14.285156 43.097656 "/>
<path style=" stroke:none;fill-rule:nonzero;fill:rgb(62.748718%,83.139038%,40.779114%);fill-opacity:1;" d="M 42.859375 32.382812 L 35.714844 32.382812 C 35.386719 32.382812 35.121094 32.117188 35.121094 31.789062 C 35.121094 31.460938 35.386719 31.195312 35.714844 31.195312 L 42.859375 31.195312 C 43.1875 31.195312 43.453125 31.460938 43.453125 31.789062 C 43.453125 32.117188 43.1875 32.382812 42.859375 32.382812 Z M 42.859375 32.382812 "/>
<path style=" stroke:none;fill-rule:nonzero;fill:rgb(30.979919%,75.689697%,91.369629%);fill-opacity:1;" d="M 52.382812 28.8125 L 44.050781 28.8125 C 43.722656 28.8125 43.453125 28.546875 43.453125 28.21875 C 43.453125 27.890625 43.722656 27.621094 44.050781 27.621094 L 52.382812 27.621094 C 52.710938 27.621094 52.980469 27.890625 52.980469 28.21875 C 52.980469 28.546875 52.710938 28.8125 52.382812 28.8125 Z M 52.382812 28.8125 "/>
<path style=" stroke:none;fill-rule:nonzero;fill:rgb(30.979919%,75.689697%,91.369629%);fill-opacity:1;" d="M 28.574219 28.8125 L 14.289062 28.8125 C 13.960938 28.8125 13.691406 28.546875 13.691406 28.21875 C 13.691406 27.890625 13.960938 27.621094 14.289062 27.621094 L 28.574219 27.621094 C 28.902344 27.621094 29.167969 27.890625 29.167969 28.21875 C 29.167969 28.546875 28.902344 28.8125 28.574219 28.8125 Z M 28.574219 28.8125 "/>
<path style=" stroke:none;fill-rule:nonzero;fill:rgb(79.998779%,81.959534%,85.099792%);fill-opacity:1;" d="M 4.167969 28.210938 C 4.167969 27.882812 3.898438 27.617188 3.570312 27.617188 L 3.570312 28.808594 C 3.898438 28.808594 4.167969 28.539062 4.167969 28.210938 Z M 4.167969 28.210938 "/>
<path style=" stroke:none;fill-rule:nonzero;fill:rgb(79.998779%,81.959534%,85.099792%);fill-opacity:1;" d="M 4.167969 31.785156 C 4.167969 31.453125 3.898438 31.1875 3.570312 31.1875 L 3.570312 32.378906 C 3.898438 32.378906 4.167969 32.113281 4.167969 31.785156 Z M 4.167969 31.785156 "/>
<path style=" stroke:none;fill-rule:nonzero;fill:rgb(79.998779%,81.959534%,85.099792%);fill-opacity:1;" d="M 4.167969 35.355469 C 4.167969 35.027344 3.898438 34.757812 3.570312 34.757812 L 3.570312 35.949219 C 3.898438 35.949219 4.167969 35.683594 4.167969 35.355469 Z M 4.167969 35.355469 "/>
<path style=" stroke:none;fill-rule:nonzero;fill:rgb(79.998779%,81.959534%,85.099792%);fill-opacity:1;" d="M 4.167969 38.925781 C 4.167969 38.597656 3.898438 38.332031 3.570312 38.332031 L 3.570312 39.519531 C 3.898438 39.519531 4.167969 39.253906 4.167969 38.925781 Z M 4.167969 38.925781 "/>
<path style=" stroke:none;fill-rule:nonzero;fill:rgb(79.998779%,81.959534%,85.099792%);fill-opacity:1;" d="M 4.167969 42.496094 C 4.167969 42.167969 3.898438 41.902344 3.570312 41.902344 L 3.570312 43.09375 C 3.898438 43.09375 4.167969 42.828125 4.167969 42.496094 Z M 4.167969 42.496094 "/>
<path style=" stroke:none;fill-rule:nonzero;fill:rgb(79.998779%,81.959534%,85.099792%);fill-opacity:1;" d="M 4.167969 24.640625 C 4.167969 24.3125 3.898438 24.046875 3.570312 24.046875 L 3.570312 25.234375 C 3.898438 25.234375 4.167969 24.96875 4.167969 24.640625 Z M 4.167969 24.640625 "/>
<path style=" stroke:none;fill-rule:nonzero;fill:rgb(79.998779%,81.959534%,85.099792%);fill-opacity:1;" d="M 4.167969 21.070312 C 4.167969 20.742188 3.898438 20.472656 3.570312 20.472656 L 3.570312 21.664062 C 3.898438 21.664062 4.167969 21.398438 4.167969 21.070312 Z M 4.167969 21.070312 "/>
<path style=" stroke:none;fill-rule:nonzero;fill:rgb(79.998779%,81.959534%,85.099792%);fill-opacity:1;" d="M 4.167969 17.496094 C 4.167969 17.167969 3.898438 16.902344 3.570312 16.902344 L 3.570312 18.09375 C 3.898438 18.09375 4.167969 17.828125 4.167969 17.496094 Z M 4.167969 17.496094 "/>
<path style=" stroke:none;fill-rule:nonzero;fill:rgb(79.998779%,81.959534%,85.099792%);fill-opacity:1;" d="M 4.167969 13.925781 C 4.167969 13.597656 3.898438 13.332031 3.570312 13.332031 L 3.570312 14.519531 C 3.898438 14.519531 4.167969 14.253906 4.167969 13.925781 Z M 4.167969 13.925781 "/>
<path style=" stroke:none;fill-rule:nonzero;fill:rgb(79.998779%,81.959534%,85.099792%);fill-opacity:1;" d="M 4.167969 10.355469 C 4.167969 10.027344 3.898438 9.757812 3.570312 9.757812 L 3.570312 10.949219 C 3.898438 10.949219 4.167969 10.683594 4.167969 10.355469 Z M 4.167969 10.355469 "/>
</g>
</svg>
