<?xml version="1.0" encoding="UTF-8"?>
<svg xmlns="http://www.w3.org/2000/svg" xmlns:xlink="http://www.w3.org/1999/xlink" width="37.5pt" height="37.499999pt" viewBox="0 0 37.5 37.499999" version="1.2">
<defs>
<clipPath id="clip1">
  <path d="M 1.96875 0 L 35.71875 0 L 35.71875 37.007812 L 1.96875 37.007812 Z M 1.96875 0 "/>
</clipPath>
</defs>
<g id="surface1">
<g clip-path="url(#clip1)" clip-rule="nonzero">
<path style=" stroke:none;fill-rule:nonzero;fill:rgb(0.779724%,46.669006%,74.119568%);fill-opacity:1;" d="M 35.902344 0 L 1.972656 0 L 4.96875 33.550781 L 18.9375 37.5 L 32.910156 33.550781 Z M 35.902344 0 "/>
</g>
<path style=" stroke:none;fill-rule:nonzero;fill:rgb(1.179504%,60.778809%,89.7995%);fill-opacity:1;" d="M 18.9375 2.960938 L 18.9375 34.441406 L 30.113281 31.28125 L 32.609375 2.960938 Z M 18.9375 2.960938 "/>
<path style=" stroke:none;fill-rule:nonzero;fill:rgb(100%,100%,100%);fill-opacity:1;" d="M 28.019531 7.894531 L 18.9375 7.894531 L 18.9375 11.84375 L 23.828125 11.84375 L 23.527344 15.789062 L 18.9375 15.789062 L 18.9375 19.738281 L 23.328125 19.738281 L 23.03125 24.175781 L 18.9375 25.558594 L 18.9375 29.703125 L 26.820312 27.136719 L 27.519531 15.789062 Z M 28.019531 7.894531 "/>
<path style=" stroke:none;fill-rule:nonzero;fill:rgb(93.328857%,93.328857%,93.328857%);fill-opacity:1;" d="M 18.9375 7.894531 L 18.9375 11.84375 L 10.058594 11.84375 L 9.757812 7.894531 Z M 14.347656 15.789062 L 14.546875 19.738281 L 18.9375 19.738281 L 18.9375 15.789062 Z M 14.746094 21.710938 L 10.753906 21.710938 L 11.054688 27.136719 L 18.9375 29.703125 L 18.9375 25.558594 L 14.847656 24.175781 Z M 14.746094 21.710938 "/>
</g>
</svg>
