<?xml version="1.0" encoding="UTF-8"?>
<svg xmlns="http://www.w3.org/2000/svg" xmlns:xlink="http://www.w3.org/1999/xlink" width="75pt" height="74.999997pt" viewBox="0 0 75 74.999997" version="1.2">
<defs>
<clipPath id="clip1">
  <path d="M 0 7.5 L 61 7.5 L 61 13 L 0 13 Z M 0 7.5 "/>
</clipPath>
<clipPath id="clip2">
  <path d="M 45 41 L 75 41 L 75 70.5 L 45 70.5 Z M 45 41 "/>
</clipPath>
</defs>
<g id="surface1">
<path style=" stroke:none;fill-rule:nonzero;fill:rgb(66.668701%,69.799805%,74.119568%);fill-opacity:1;" d="M 0.046875 12.359375 L 3.671875 12.359375 L 3.671875 56.105469 L 0.046875 56.105469 Z M 0.046875 12.359375 "/>
<path style=" stroke:none;fill-rule:nonzero;fill:rgb(39.608765%,42.749023%,47.059631%);fill-opacity:1;" d="M 60.445312 12.359375 L 3.671875 12.359375 L 3.671875 56.105469 L 50.78125 56.105469 C 50.78125 49.398438 53.777344 45.167969 60.445312 45.167969 C 60.457031 45.167969 60.457031 45.167969 60.46875 45.167969 L 60.46875 12.359375 Z M 60.445312 12.359375 "/>
<g clip-path="url(#clip1)" clip-rule="nonzero">
<path style=" stroke:none;fill-rule:nonzero;fill:rgb(79.998779%,81.959534%,85.099792%);fill-opacity:1;" d="M 60.445312 9.929688 L 60.445312 12.359375 L 0.046875 12.359375 L 0.046875 9.929688 C 0.046875 8.59375 1.136719 7.5 2.464844 7.5 L 58.027344 7.5 C 59.371094 7.5 60.445312 8.59375 60.445312 9.929688 Z M 60.445312 9.929688 "/>
</g>
<path style=" stroke:none;fill-rule:nonzero;fill:rgb(92.939758%,33.329773%,39.608765%);fill-opacity:1;" d="M 3.707031 11.144531 C 3.042969 11.144531 2.496094 10.601562 2.496094 9.929688 C 2.496094 9.257812 3.027344 8.714844 3.695312 8.714844 L 3.710938 8.714844 C 4.375 8.714844 4.917969 9.257812 4.917969 9.929688 C 4.917969 10.601562 4.375 11.144531 3.707031 11.144531 Z M 3.707031 11.144531 "/>
<path style=" stroke:none;fill-rule:nonzero;fill:rgb(100%,80.778503%,32.939148%);fill-opacity:1;" d="M 7.332031 11.144531 C 6.664062 11.144531 6.117188 10.601562 6.117188 9.929688 C 6.117188 9.257812 6.652344 8.714844 7.320312 8.714844 L 7.332031 8.714844 C 8 8.714844 8.542969 9.257812 8.542969 9.929688 C 8.542969 10.601562 8 11.144531 7.332031 11.144531 Z M 7.332031 11.144531 "/>
<path style=" stroke:none;fill-rule:nonzero;fill:rgb(54.899597%,75.689697%,32.159424%);fill-opacity:1;" d="M 10.957031 11.144531 C 10.289062 11.144531 9.742188 10.601562 9.742188 9.929688 C 9.742188 9.257812 10.277344 8.714844 10.945312 8.714844 L 10.957031 8.714844 C 11.625 8.714844 12.164062 9.257812 12.164062 9.929688 C 12.164062 10.601562 11.621094 11.144531 10.957031 11.144531 Z M 10.957031 11.144531 "/>
<path style=" stroke:none;fill-rule:nonzero;fill:rgb(100%,80.778503%,32.939148%);fill-opacity:1;" d="M 29.039062 18.4375 L 8.503906 18.4375 C 7.835938 18.4375 7.296875 17.894531 7.296875 17.222656 C 7.296875 16.550781 7.835938 16.007812 8.503906 16.007812 L 29.039062 16.007812 C 29.707031 16.007812 30.246094 16.550781 30.246094 17.222656 C 30.246094 17.894531 29.707031 18.4375 29.039062 18.4375 Z M 29.039062 18.4375 "/>
<path style=" stroke:none;fill-rule:nonzero;fill:rgb(67.449951%,57.249451%,92.549133%);fill-opacity:1;" d="M 32.664062 23.296875 L 10.917969 23.296875 C 10.25 23.296875 9.710938 22.753906 9.710938 22.082031 C 9.710938 21.410156 10.25 20.867188 10.917969 20.867188 L 32.664062 20.867188 C 33.332031 20.867188 33.871094 21.410156 33.871094 22.082031 C 33.871094 22.753906 33.332031 23.296875 32.664062 23.296875 Z M 32.664062 23.296875 "/>
<path style=" stroke:none;fill-rule:nonzero;fill:rgb(62.748718%,83.139038%,40.779114%);fill-opacity:1;" d="M 23 47.613281 L 10.917969 47.613281 C 10.25 47.613281 9.710938 47.070312 9.710938 46.398438 C 9.710938 45.726562 10.25 45.183594 10.917969 45.183594 L 23 45.183594 C 23.667969 45.183594 24.207031 45.726562 24.207031 46.398438 C 24.207031 47.070312 23.667969 47.613281 23 47.613281 Z M 23 47.613281 "/>
<path style=" stroke:none;fill-rule:nonzero;fill:rgb(67.449951%,57.249451%,92.549133%);fill-opacity:1;" d="M 39.910156 23.296875 L 37.492188 23.296875 C 36.824219 23.296875 36.285156 22.753906 36.285156 22.082031 C 36.285156 21.410156 36.824219 20.867188 37.492188 20.867188 L 39.910156 20.867188 C 40.578125 20.867188 41.117188 21.410156 41.117188 22.082031 C 41.117188 22.753906 40.578125 23.296875 39.910156 23.296875 Z M 39.910156 23.296875 "/>
<path style=" stroke:none;fill-rule:nonzero;fill:rgb(100%,80.778503%,32.939148%);fill-opacity:1;" d="M 15.75 52.460938 L 8.503906 52.460938 C 7.835938 52.460938 7.296875 51.917969 7.296875 51.246094 C 7.296875 50.574219 7.835938 50.03125 8.503906 50.03125 L 15.75 50.03125 C 16.417969 50.03125 16.960938 50.574219 16.960938 51.246094 C 16.960938 51.917969 16.417969 52.460938 15.75 52.460938 Z M 15.75 52.460938 "/>
<path style=" stroke:none;fill-rule:nonzero;fill:rgb(36.468506%,61.178589%,92.549133%);fill-opacity:1;" d="M 18.167969 28.15625 L 13.335938 28.15625 C 12.667969 28.15625 12.128906 27.613281 12.128906 26.941406 C 12.128906 26.269531 12.667969 25.726562 13.335938 25.726562 L 18.167969 25.726562 C 18.835938 25.726562 19.375 26.269531 19.375 26.941406 C 19.375 27.613281 18.835938 28.15625 18.167969 28.15625 Z M 18.167969 28.15625 "/>
<path style=" stroke:none;fill-rule:nonzero;fill:rgb(36.468506%,61.178589%,92.549133%);fill-opacity:1;" d="M 45.949219 28.15625 L 23 28.15625 C 22.332031 28.15625 21.789062 27.613281 21.789062 26.941406 C 21.789062 26.269531 22.332031 25.726562 23 25.726562 L 45.949219 25.726562 C 46.617188 25.726562 47.15625 26.269531 47.15625 26.941406 C 47.15625 27.613281 46.617188 28.15625 45.949219 28.15625 Z M 45.949219 28.15625 "/>
<path style=" stroke:none;fill-rule:nonzero;fill:rgb(62.748718%,83.139038%,40.779114%);fill-opacity:1;" d="M 38.703125 33.019531 L 13.335938 33.019531 C 12.667969 33.019531 12.128906 32.476562 12.128906 31.804688 C 12.128906 31.132812 12.667969 30.589844 13.335938 30.589844 L 38.703125 30.589844 C 39.371094 30.589844 39.910156 31.132812 39.910156 31.804688 C 39.910156 32.476562 39.371094 33.019531 38.703125 33.019531 Z M 38.703125 33.019531 "/>
<path style=" stroke:none;fill-rule:nonzero;fill:rgb(92.939758%,33.329773%,39.608765%);fill-opacity:1;" d="M 26.621094 37.878906 L 13.335938 37.878906 C 12.667969 37.878906 12.128906 37.335938 12.128906 36.664062 C 12.128906 35.992188 12.667969 35.449219 13.335938 35.449219 L 26.621094 35.449219 C 27.289062 35.449219 27.832031 35.992188 27.832031 36.664062 C 27.832031 37.335938 27.289062 37.878906 26.621094 37.878906 Z M 26.621094 37.878906 "/>
<path style=" stroke:none;fill-rule:nonzero;fill:rgb(67.449951%,57.249451%,92.549133%);fill-opacity:1;" d="M 38.703125 42.738281 L 20.582031 42.738281 C 19.914062 42.738281 19.375 42.195312 19.375 41.523438 C 19.375 40.851562 19.914062 40.308594 20.582031 40.308594 L 38.703125 40.308594 C 39.371094 40.308594 39.910156 40.851562 39.910156 41.523438 C 39.910156 42.195312 39.371094 42.738281 38.703125 42.738281 Z M 38.703125 42.738281 "/>
<path style=" stroke:none;fill-rule:nonzero;fill:rgb(67.449951%,57.249451%,92.549133%);fill-opacity:1;" d="M 15.75 42.738281 L 13.335938 42.738281 C 12.667969 42.738281 12.128906 42.195312 12.128906 41.523438 C 12.128906 40.851562 12.667969 40.308594 13.335938 40.308594 L 15.75 40.308594 C 16.417969 40.308594 16.960938 40.851562 16.960938 41.523438 C 16.960938 42.195312 16.417969 42.738281 15.75 42.738281 Z M 15.75 42.738281 "/>
<path style=" stroke:none;fill-rule:nonzero;fill:rgb(62.748718%,83.139038%,40.779114%);fill-opacity:1;" d="M 48.367188 33.019531 L 43.535156 33.019531 C 42.867188 33.019531 42.324219 32.476562 42.324219 31.804688 C 42.324219 31.132812 42.867188 30.589844 43.535156 30.589844 L 48.367188 30.589844 C 49.035156 30.589844 49.574219 31.132812 49.574219 31.804688 C 49.574219 32.476562 49.035156 33.019531 48.367188 33.019531 Z M 48.367188 33.019531 "/>
<path style=" stroke:none;fill-rule:nonzero;fill:rgb(58.81958%,47.839355%,86.268616%);fill-opacity:1;" d="M 60.457031 63.398438 C 56.457031 63.398438 53.210938 60.128906 53.210938 56.105469 C 53.210938 52.085938 56.457031 48.816406 60.457031 48.816406 C 64.453125 48.816406 67.703125 52.085938 67.703125 56.105469 C 67.703125 60.128906 64.453125 63.398438 60.457031 63.398438 Z M 60.457031 52.460938 C 58.464844 52.460938 56.832031 54.101562 56.832031 56.105469 C 56.832031 58.109375 58.464844 59.75 60.457031 59.75 C 62.449219 59.75 64.082031 58.109375 64.082031 56.105469 C 64.082031 54.101562 62.449219 52.460938 60.457031 52.460938 Z M 60.457031 52.460938 "/>
<g clip-path="url(#clip2)" clip-rule="nonzero">
<path style=" stroke:none;fill-rule:nonzero;fill:rgb(67.449951%,57.249451%,92.549133%);fill-opacity:1;" d="M 71.328125 45.59375 L 74.953125 51.914062 L 72.246094 53.46875 C 72.425781 54.320312 72.535156 55.195312 72.535156 56.105469 C 72.535156 57.015625 72.425781 57.890625 72.246094 58.742188 L 74.953125 60.175781 L 71.328125 66.496094 L 68.609375 65.050781 C 67.328125 66.242188 65.785156 67.164062 64.082031 67.699219 L 64.082031 70.6875 L 56.832031 70.6875 L 56.832031 67.699219 C 55.128906 67.164062 53.582031 66.242188 52.304688 65.050781 L 49.585938 66.496094 L 45.960938 60.175781 L 48.667969 58.742188 C 48.484375 57.890625 48.378906 57.015625 48.378906 56.105469 C 48.378906 55.195312 48.484375 54.320312 48.667969 53.46875 L 45.960938 51.914062 L 49.585938 45.59375 L 52.304688 47.160156 C 53.582031 45.972656 55.128906 45.046875 56.832031 44.511719 L 56.832031 41.523438 L 64.082031 41.523438 L 64.082031 44.511719 C 65.785156 45.046875 67.316406 45.972656 68.609375 47.164062 Z M 67.703125 56.105469 C 67.703125 52.085938 64.453125 48.816406 60.457031 48.816406 C 56.457031 48.816406 53.210938 52.085938 53.210938 56.105469 C 53.210938 60.128906 56.457031 63.398438 60.457031 63.398438 C 64.453125 63.398438 67.703125 60.128906 67.703125 56.105469 Z M 67.703125 56.105469 "/>
</g>
</g>
</svg>
