<?xml version="1.0" encoding="UTF-8"?>
<svg xmlns="http://www.w3.org/2000/svg" xmlns:xlink="http://www.w3.org/1999/xlink" width="37.5pt" height="37.499999pt" viewBox="0 0 37.5 37.499999" version="1.2">
<defs>
<clipPath id="clip1">
  <path d="M 9 4.558594 L 27 4.558594 L 27 28 L 9 28 Z M 9 4.558594 "/>
</clipPath>
<clipPath id="clip2">
  <path d="M 14 13 L 35 13 L 35 33.058594 L 14 33.058594 Z M 14 13 "/>
</clipPath>
<clipPath id="clip3">
  <path d="M 3 18 L 27 18 L 27 33.058594 L 3 33.058594 Z M 3 18 "/>
</clipPath>
</defs>
<g id="surface1">
<g clip-path="url(#clip1)" clip-rule="nonzero">
<path style=" stroke:none;fill-rule:nonzero;fill:rgb(49.409485%,34.118652%,76.078796%);fill-opacity:1;" d="M 18.109375 4.558594 C 13.320312 4.558594 9.421875 9.765625 9.421875 16.160156 C 9.421875 19.617188 10.566406 22.722656 12.375 24.84375 C 12.339844 24.996094 12.316406 25.152344 12.316406 25.316406 C 12.316406 26.503906 13.289062 27.464844 14.488281 27.464844 C 15.691406 27.464844 16.664062 26.503906 16.664062 25.316406 C 16.664062 24.128906 15.691406 23.167969 14.488281 23.167969 C 14.261719 23.167969 14.046875 23.214844 13.839844 23.277344 C 12.46875 21.546875 11.59375 19 11.59375 16.160156 C 11.59375 10.949219 14.515625 6.707031 18.109375 6.707031 C 20.890625 6.707031 23.261719 9.246094 24.195312 12.804688 C 25.007812 13.050781 25.816406 13.363281 26.609375 13.742188 C 25.769531 8.503906 22.28125 4.558594 18.109375 4.558594 Z M 18.109375 4.558594 "/>
</g>
<g clip-path="url(#clip2)" clip-rule="nonzero">
<path style=" stroke:none;fill-rule:nonzero;fill:rgb(49.409485%,34.118652%,76.078796%);fill-opacity:1;" d="M 27.167969 16.074219 C 24.308594 14.359375 21.101562 13.609375 18.347656 13.953125 C 17.949219 13.46875 17.34375 13.148438 16.664062 13.148438 C 15.460938 13.148438 14.488281 14.109375 14.488281 15.296875 C 14.488281 16.480469 15.460938 17.445312 16.664062 17.445312 C 17.582031 17.445312 18.367188 16.875 18.683594 16.074219 C 20.941406 15.804688 23.613281 16.457031 26.042969 17.910156 C 30.679688 20.6875 33.042969 25.472656 31.3125 28.582031 C 30.714844 29.660156 29.660156 30.421875 28.261719 30.792969 C 26.605469 31.230469 24.632812 31.074219 22.664062 30.414062 C 22.058594 30.96875 21.398438 31.488281 20.691406 31.96875 C 22.539062 32.765625 24.453125 33.1875 26.246094 33.1875 C 27.144531 33.1875 28.011719 33.082031 28.820312 32.867188 C 30.808594 32.34375 32.328125 31.21875 33.21875 29.617188 C 35.5 25.515625 32.785156 19.4375 27.167969 16.074219 Z M 27.167969 16.074219 "/>
</g>
<g clip-path="url(#clip3)" clip-rule="nonzero">
<path style=" stroke:none;fill-rule:nonzero;fill:rgb(49.409485%,34.118652%,76.078796%);fill-opacity:1;" d="M 26.800781 22.449219 C 26.800781 21.265625 25.828125 20.304688 24.628906 20.304688 C 23.429688 20.304688 22.457031 21.265625 22.457031 22.449219 C 22.457031 22.925781 22.621094 23.363281 22.890625 23.722656 C 21.964844 25.726562 20.179688 27.707031 17.777344 29.144531 C 14.976562 30.824219 11.847656 31.4375 9.410156 30.792969 C 8.011719 30.421875 6.953125 29.65625 6.355469 28.582031 C 5.121094 26.367188 5.976562 23.300781 8.246094 20.714844 C 8.011719 19.898438 7.835938 19.042969 7.734375 18.15625 C 4.0625 21.589844 2.585938 26.261719 4.453125 29.617188 C 5.34375 31.21875 6.863281 32.34375 8.847656 32.867188 C 9.660156 33.082031 10.527344 33.1875 11.425781 33.1875 C 13.847656 33.1875 16.5 32.421875 18.902344 30.984375 C 21.679688 29.320312 23.742188 26.992188 24.847656 24.566406 C 25.941406 24.457031 26.800781 23.558594 26.800781 22.449219 Z M 26.800781 22.449219 "/>
</g>
</g>
</svg>
