<?xml version="1.0" encoding="UTF-8"?>
<svg xmlns="http://www.w3.org/2000/svg" xmlns:xlink="http://www.w3.org/1999/xlink" width="37.5pt" height="37.499999pt" viewBox="0 0 37.5 37.499999" version="1.2">
<defs>
<clipPath id="clip1">
  <path d="M 8 24 L 10 24 L 10 25.96875 L 8 25.96875 Z M 8 24 "/>
</clipPath>
<clipPath id="clip2">
  <path d="M 0 12 L 22 12 L 22 25.96875 L 0 25.96875 Z M 0 12 "/>
</clipPath>
<clipPath id="clip3">
  <path d="M 10 11.71875 L 12 11.71875 L 12 13 L 10 13 Z M 10 11.71875 "/>
</clipPath>
<clipPath id="clip4">
  <path d="M 12 18 L 19 18 L 19 25.96875 L 12 25.96875 Z M 12 18 "/>
</clipPath>
<clipPath id="clip5">
  <path d="M 27 18 L 33 18 L 33 25.96875 L 27 25.96875 Z M 27 18 "/>
</clipPath>
<clipPath id="clip6">
  <path d="M 24 18 L 27 18 L 27 25.96875 L 24 25.96875 Z M 24 18 "/>
</clipPath>
<clipPath id="clip7">
  <path d="M 18 18 L 24 18 L 24 25.96875 L 18 25.96875 Z M 18 18 "/>
</clipPath>
<clipPath id="clip8">
  <path d="M 32 18 L 37.007812 18 L 37.007812 25.96875 L 32 25.96875 Z M 32 18 "/>
</clipPath>
</defs>
<g id="surface1">
<path style=" stroke:none;fill-rule:nonzero;fill:rgb(78.039551%,4.309082%,0%);fill-opacity:1;" d="M 8.855469 20.308594 C 8.734375 20.691406 8.648438 21.074219 8.570312 21.449219 L 9.339844 22.109375 C 9.375 21.707031 9.445312 21.300781 9.539062 20.898438 Z M 8.855469 20.308594 "/>
<g clip-path="url(#clip1)" clip-rule="nonzero">
<path style=" stroke:none;fill-rule:nonzero;fill:rgb(78.039551%,4.309082%,0%);fill-opacity:1;" d="M 8.429688 24.085938 C 8.449219 24.632812 8.496094 25.082031 8.542969 25.390625 L 9.679688 25.835938 C 9.59375 25.433594 9.507812 24.976562 9.453125 24.488281 Z M 8.429688 24.085938 "/>
</g>
<g clip-path="url(#clip2)" clip-rule="nonzero">
<path style=" stroke:none;fill-rule:nonzero;fill:rgb(78.039551%,4.309082%,0%);fill-opacity:1;" d="M 0.734375 25.648438 C 0.679688 25.96875 0.664062 26.15625 0.664062 26.15625 L 0.664062 26.160156 L 8.148438 26.160156 C 8.148438 26.160156 6.71875 19.011719 11.453125 16.117188 C 12.484375 15.566406 15.773438 13.511719 21.152344 17.867188 C 21.320312 17.714844 21.484375 17.585938 21.484375 17.585938 C 21.484375 17.585938 16.554688 12.203125 11.070312 12.804688 C 8.304688 13.074219 4.914062 15.824219 2.925781 19.453125 C 1.414062 22.210938 0.894531 24.636719 0.734375 25.648438 Z M 0.734375 25.648438 "/>
</g>
<path style=" stroke:none;fill-rule:nonzero;fill:rgb(78.039551%,4.309082%,0%);fill-opacity:1;" d="M 4.421875 16.519531 L 3.75 15.878906 C 3.503906 16.136719 3.269531 16.394531 3.050781 16.65625 L 3.78125 17.339844 C 3.980469 17.058594 4.199219 16.777344 4.425781 16.519531 Z M 4.421875 16.519531 "/>
<path style=" stroke:none;fill-rule:nonzero;fill:rgb(78.039551%,4.309082%,0%);fill-opacity:1;" d="M 10.960938 18.121094 L 10.535156 17.414062 C 10.316406 17.632812 10.117188 17.871094 9.945312 18.109375 L 10.402344 18.855469 C 10.5625 18.59375 10.75 18.355469 10.960938 18.121094 Z M 10.960938 18.121094 "/>
<g clip-path="url(#clip3)" clip-rule="nonzero">
<path style=" stroke:none;fill-rule:nonzero;fill:rgb(78.039551%,4.309082%,0%);fill-opacity:1;" d="M 11.945312 12.351562 L 11.757812 11.71875 C 11.460938 11.71875 11.160156 11.738281 10.847656 11.78125 L 11.027344 12.394531 C 11.300781 12.363281 11.578125 12.351562 11.851562 12.351562 Z M 11.945312 12.351562 "/>
</g>
<path style=" stroke:none;fill-rule:nonzero;fill:rgb(78.039551%,4.309082%,0%);fill-opacity:1;" d="M 7.578125 12.726562 C 7.339844 12.859375 7.09375 13.003906 6.835938 13.167969 L 7.273438 13.894531 C 7.519531 13.730469 7.757812 13.574219 8.003906 13.441406 Z M 7.578125 12.726562 "/>
<path style=" stroke:none;fill-rule:nonzero;fill:rgb(78.039551%,4.309082%,0%);fill-opacity:1;" d="M 1.5625 21.15625 L 0.472656 20.722656 C 0.292969 21.167969 0.09375 21.6875 0 21.964844 L 1.089844 22.402344 C 1.210938 22.046875 1.410156 21.542969 1.5625 21.15625 Z M 1.5625 21.15625 "/>
<g clip-path="url(#clip4)" clip-rule="nonzero">
<path style=" stroke:none;fill-rule:nonzero;fill:rgb(78.039551%,4.309082%,0%);fill-opacity:1;" d="M 12.078125 26.160156 L 13.898438 26.160156 L 13.898438 24.375 L 15.46875 26.160156 L 18.15625 26.160156 L 16.046875 23.824219 C 16.046875 23.824219 17.703125 23.671875 17.703125 21.324219 C 17.703125 18.980469 15.695312 18.761719 15.695312 18.761719 L 12.078125 18.761719 Z M 13.894531 20.617188 L 15.351562 20.617188 C 15.351562 20.617188 15.761719 20.78125 15.761719 21.457031 C 15.761719 22.132812 15.34375 22.308594 15.34375 22.308594 L 13.894531 22.308594 Z M 13.894531 20.617188 "/>
</g>
<g clip-path="url(#clip5)" clip-rule="nonzero">
<path style=" stroke:none;fill-rule:nonzero;fill:rgb(78.039551%,4.309082%,0%);fill-opacity:1;" d="M 27.507812 18.8125 L 27.507812 26.15625 L 32.007812 26.15625 L 32.007812 24.257812 L 29.421875 24.257812 L 29.421875 18.8125 Z M 27.507812 18.8125 "/>
</g>
<g clip-path="url(#clip6)" clip-rule="nonzero">
<path style=" stroke:none;fill-rule:nonzero;fill:rgb(78.039551%,4.309082%,0%);fill-opacity:1;" d="M 24.796875 18.8125 L 26.71875 18.8125 L 26.71875 26.15625 L 24.796875 26.15625 Z M 24.796875 18.8125 "/>
</g>
<path style=" stroke:none;fill-rule:nonzero;fill:rgb(78.039551%,4.309082%,0%);fill-opacity:1;" d="M 16.292969 12.691406 C 16.207031 12.640625 15.96875 12.515625 15.375 12.328125 L 15.335938 13.015625 C 15.648438 13.128906 15.949219 13.253906 16.253906 13.386719 L 16.253906 13.390625 Z M 16.292969 12.691406 "/>
<path style=" stroke:none;fill-rule:nonzero;fill:rgb(78.039551%,4.309082%,0%);fill-opacity:1;" d="M 16.292969 15.722656 C 15.96875 15.648438 15.65625 15.609375 15.355469 15.585938 L 15.355469 15.589844 L 15.316406 16.242188 C 15.628906 16.25 15.941406 16.292969 16.253906 16.363281 Z M 16.292969 15.722656 "/>
<g clip-path="url(#clip7)" clip-rule="nonzero">
<path style=" stroke:none;fill-rule:nonzero;fill:rgb(78.039551%,4.309082%,0%);fill-opacity:1;" d="M 22.191406 18.8125 L 20.34375 18.8125 C 19.03125 18.8125 18.585938 20.121094 18.585938 20.742188 L 18.585938 26.160156 L 20.429688 26.160156 L 20.429688 24.859375 L 22.164062 24.859375 L 22.164062 26.160156 L 23.953125 26.160156 L 23.953125 20.742188 C 23.953125 19.167969 22.648438 18.8125 22.191406 18.8125 Z M 20.421875 22.765625 L 20.421875 20.972656 C 20.421875 20.972656 20.421875 20.566406 21 20.566406 L 21.632812 20.566406 C 22.144531 20.566406 22.15625 20.972656 22.15625 20.972656 L 22.15625 22.765625 Z M 20.421875 22.765625 "/>
</g>
<g clip-path="url(#clip8)" clip-rule="nonzero">
<path style=" stroke:none;fill-rule:nonzero;fill:rgb(78.039551%,4.309082%,0%);fill-opacity:1;" d="M 37.253906 20.703125 L 37.253906 18.8125 L 34.320312 18.8125 C 33.5625 18.8125 32.546875 19.496094 32.546875 20.773438 L 32.546875 21.425781 C 32.546875 22.703125 33.550781 23.355469 34.320312 23.355469 C 34.8125 23.359375 35.042969 23.359375 35.140625 23.359375 C 34.992188 23.359375 34.714844 23.355469 35.777344 23.355469 L 35.777344 24.269531 L 32.640625 24.28125 L 32.640625 26.160156 L 35.738281 26.160156 C 36.375 26.160156 37.460938 25.648438 37.5 24.230469 L 37.5 23.5 C 37.5 22.289062 36.589844 21.570312 35.738281 21.570312 L 34.195312 21.570312 L 34.195312 20.699219 L 37.253906 20.699219 Z M 37.253906 20.703125 "/>
</g>
<path style=" stroke:none;fill-rule:nonzero;fill:rgb(78.039551%,4.309082%,0%);fill-opacity:1;" d="M 13.34375 16.523438 L 13.136719 15.839844 C 12.816406 15.941406 12.539062 16.058594 12.304688 16.171875 L 12.523438 16.886719 C 12.796875 16.742188 13.070312 16.617188 13.34375 16.523438 Z M 13.34375 16.523438 "/>
</g>
</svg>
