<?xml version="1.0" encoding="UTF-8"?>
<svg xmlns="http://www.w3.org/2000/svg" xmlns:xlink="http://www.w3.org/1999/xlink" width="75pt" height="74.999997pt" viewBox="0 0 75 74.999997" version="1.2">
<defs>
<clipPath id="clip1">
  <path d="M 15 67 L 58 67 L 58 74.050781 L 15 74.050781 Z M 15 67 "/>
</clipPath>
<clipPath id="clip2">
  <path d="M 0.679688 8 L 15 8 L 15 19 L 0.679688 19 Z M 0.679688 8 "/>
</clipPath>
<clipPath id="clip3">
  <path d="M 0.679688 25 L 13 25 L 13 51 L 0.679688 51 Z M 0.679688 25 "/>
</clipPath>
<clipPath id="clip4">
  <path d="M 60 33 L 74.050781 33 L 74.050781 36 L 60 36 Z M 60 33 "/>
</clipPath>
<clipPath id="clip5">
  <path d="M 35 0.679688 L 38 0.679688 L 38 4 L 35 4 Z M 35 0.679688 "/>
</clipPath>
</defs>
<g id="surface1">
<g clip-path="url(#clip1)" clip-rule="nonzero">
<path style=" stroke:none;fill-rule:nonzero;fill:rgb(98.81897%,90.979004%,16.859436%);fill-opacity:1;" d="M 57.746094 70.558594 C 57.746094 72.488281 48.363281 74.050781 36.785156 74.050781 C 25.207031 74.050781 15.820312 72.488281 15.820312 70.558594 C 15.820312 68.628906 25.207031 67.0625 36.785156 67.0625 C 48.363281 67.0625 57.746094 68.628906 57.746094 70.558594 "/>
</g>
<path style=" stroke:none;fill-rule:nonzero;fill:rgb(20.779419%,28.62854%,36.859131%);fill-opacity:1;" d="M 51.925781 64.734375 L 21.644531 64.734375 C 18.425781 64.734375 15.820312 62.128906 15.820312 58.910156 C 15.820312 55.695312 18.425781 53.089844 21.644531 53.089844 L 27.46875 53.089844 L 27.46875 50.757812 L 46.101562 50.757812 L 46.101562 53.089844 L 51.925781 53.089844 C 55.140625 53.089844 57.746094 55.695312 57.746094 58.910156 C 57.746094 62.128906 55.140625 64.734375 51.925781 64.734375 "/>
<path style=" stroke:none;fill-rule:nonzero;fill:rgb(88.62915%,14.509583%,14.898682%);fill-opacity:1;" d="M 46.101562 50.757812 L 27.46875 50.757812 L 27.46875 33.289062 L 46.101562 33.289062 L 46.101562 50.757812 "/>
<path style=" stroke:none;fill-rule:nonzero;fill:rgb(97.648621%,63.919067%,52.159119%);fill-opacity:1;" d="M 46.101562 26.300781 C 46.101562 31.449219 41.929688 35.621094 36.785156 35.621094 C 31.636719 35.621094 27.46875 31.449219 27.46875 26.300781 C 27.46875 21.15625 31.636719 16.984375 36.785156 16.984375 C 41.929688 16.984375 46.101562 21.15625 46.101562 26.300781 "/>
<path style=" stroke:none;fill-rule:nonzero;fill:rgb(98.81897%,76.078796%,0%);fill-opacity:1;" d="M 46.101562 26.300781 C 42.242188 26.300781 39.113281 23.175781 39.113281 19.316406 L 39.113281 18.148438 C 39.113281 20.402344 38.199219 22.4375 36.726562 23.914062 C 35.25 25.390625 33.210938 26.300781 30.960938 26.300781 L 27.46875 26.300781 C 27.46875 21.15625 31.636719 16.984375 36.785156 16.984375 C 41.929688 16.984375 46.101562 21.15625 46.101562 26.300781 "/>
<path style=" stroke:none;fill-rule:nonzero;fill:rgb(2.349854%,56.858826%,73.728943%);fill-opacity:1;" d="M 46.101562 35.621094 L 53.089844 28.632812 L 53.089844 21.644531 L 57.746094 21.644531 L 57.746094 30.960938 L 46.101562 42.605469 L 46.101562 35.621094 "/>
<path style=" stroke:none;fill-rule:nonzero;fill:rgb(0%,65.879822%,90.589905%);fill-opacity:1;" d="M 46.101562 33.289062 C 48.671875 33.289062 50.757812 35.375 50.757812 37.949219 L 53.089844 40.277344 L 60.078125 40.277344 L 60.078125 44.9375 L 50.757812 44.9375 L 46.101562 40.277344 L 46.101562 33.289062 "/>
<path style=" stroke:none;fill-rule:nonzero;fill:rgb(97.648621%,63.919067%,52.159119%);fill-opacity:1;" d="M 60.078125 40.277344 L 63.570312 40.277344 C 64.214844 40.277344 64.734375 40.800781 64.734375 41.441406 L 68.230469 41.441406 L 68.230469 42.605469 C 68.230469 43.894531 67.1875 44.9375 65.898438 44.9375 L 60.078125 44.9375 L 60.078125 40.277344 "/>
<path style=" stroke:none;fill-rule:nonzero;fill:rgb(97.648621%,63.919067%,52.159119%);fill-opacity:1;" d="M 55.417969 16.984375 L 56.582031 16.984375 C 57.226562 16.984375 57.746094 17.507812 57.746094 18.148438 L 61.242188 18.148438 L 61.242188 19.316406 C 61.242188 20.601562 60.199219 21.644531 58.910156 21.644531 L 53.089844 21.644531 L 53.089844 19.316406 C 53.089844 18.027344 54.132812 16.984375 55.417969 16.984375 "/>
<path style=" stroke:none;fill-rule:nonzero;fill:rgb(2.349854%,56.858826%,73.728943%);fill-opacity:1;" d="M 27.46875 35.621094 L 20.480469 28.632812 L 20.480469 21.644531 L 15.820312 21.644531 L 15.820312 30.960938 L 27.46875 42.605469 L 27.46875 35.621094 "/>
<path style=" stroke:none;fill-rule:nonzero;fill:rgb(0%,65.879822%,90.589905%);fill-opacity:1;" d="M 27.46875 33.289062 C 24.894531 33.289062 22.808594 35.375 22.808594 37.949219 L 20.480469 40.277344 L 13.492188 40.277344 L 13.492188 44.9375 L 22.808594 44.9375 L 27.46875 40.277344 L 27.46875 33.289062 "/>
<path style=" stroke:none;fill-rule:nonzero;fill:rgb(97.648621%,63.919067%,52.159119%);fill-opacity:1;" d="M 13.492188 40.277344 L 9.996094 40.277344 C 9.355469 40.277344 8.832031 40.800781 8.832031 41.441406 L 5.339844 41.441406 L 5.339844 42.605469 C 5.339844 43.894531 6.382812 44.9375 7.667969 44.9375 L 13.492188 44.9375 L 13.492188 40.277344 "/>
<path style=" stroke:none;fill-rule:nonzero;fill:rgb(97.648621%,63.919067%,52.159119%);fill-opacity:1;" d="M 46.101562 49.59375 L 42.605469 49.59375 C 41.964844 49.59375 41.441406 50.117188 41.441406 50.757812 L 37.949219 50.757812 L 37.949219 51.925781 C 37.949219 53.210938 38.992188 54.253906 40.277344 54.253906 L 46.101562 54.253906 L 46.101562 49.59375 "/>
<path style=" stroke:none;fill-rule:nonzero;fill:rgb(97.648621%,63.919067%,52.159119%);fill-opacity:1;" d="M 27.46875 49.59375 L 30.960938 49.59375 C 31.605469 49.59375 32.125 50.117188 32.125 50.757812 L 35.621094 50.757812 L 35.621094 51.925781 C 35.621094 53.210938 34.578125 54.253906 33.289062 54.253906 L 27.46875 54.253906 L 27.46875 49.59375 "/>
<path style=" stroke:none;fill-rule:nonzero;fill:rgb(97.648621%,63.919067%,52.159119%);fill-opacity:1;" d="M 18.148438 16.984375 L 16.984375 16.984375 C 16.34375 16.984375 15.820312 17.507812 15.820312 18.148438 L 12.328125 18.148438 L 12.328125 19.316406 C 12.328125 20.601562 13.371094 21.644531 14.65625 21.644531 L 20.480469 21.644531 L 20.480469 19.316406 C 20.480469 18.027344 19.4375 16.984375 18.148438 16.984375 "/>
<path style=" stroke:none;fill-rule:nonzero;fill:rgb(98.81897%,90.979004%,16.859436%);fill-opacity:1;" d="M 40.277344 9.996094 C 40.277344 11.925781 38.714844 13.492188 36.785156 13.492188 C 34.855469 13.492188 33.289062 11.925781 33.289062 9.996094 C 33.289062 8.066406 34.855469 6.503906 36.785156 6.503906 C 38.714844 6.503906 40.277344 8.066406 40.277344 9.996094 "/>
<path style=" stroke:none;fill-rule:nonzero;fill:rgb(65.489197%,86.268616%,97.648621%);fill-opacity:1;" d="M 39.113281 16.984375 L 34.453125 16.984375 L 34.453125 12.328125 L 39.113281 12.328125 L 39.113281 16.984375 "/>
<path style=" stroke:none;fill-rule:nonzero;fill:rgb(94.119263%,35.289001%,16.079712%);fill-opacity:1;" d="M 58.074219 5.339844 C 58.074219 5.339844 59.238281 6.503906 58.074219 7.667969 C 56.910156 8.832031 54.578125 7.667969 53.414062 9.996094 C 52.25 12.328125 54.578125 13.492188 54.578125 13.492188 L 62.730469 13.492188 C 62.730469 13.492188 65.0625 13.492188 65.0625 11.164062 C 65.0625 7.480469 58.074219 5.339844 58.074219 5.339844 "/>
<path style=" stroke:none;fill-rule:nonzero;fill:rgb(98.81897%,90.979004%,16.859436%);fill-opacity:1;" d="M 61.566406 18.148438 L 56.910156 18.148438 L 55.742188 13.492188 L 62.730469 13.492188 L 61.566406 18.148438 "/>
<g clip-path="url(#clip2)" clip-rule="nonzero">
<path style=" stroke:none;fill-rule:nonzero;fill:rgb(20.779419%,28.62854%,36.859131%);fill-opacity:1;" d="M 14.65625 18.148438 L 3.011719 18.148438 L 0.679688 8.832031 L 12.328125 8.832031 L 14.65625 18.148438 "/>
</g>
<g clip-path="url(#clip3)" clip-rule="nonzero">
<path style=" stroke:none;fill-rule:nonzero;fill:rgb(94.119263%,35.289001%,16.079712%);fill-opacity:1;" d="M 4.175781 25.136719 L 4.175781 29.996094 C 4.175781 30.613281 4.417969 31.207031 4.855469 31.644531 C 5.765625 32.550781 7.242188 32.550781 8.152344 31.644531 C 8.585938 31.207031 8.832031 30.613281 8.832031 29.996094 L 8.832031 25.136719 L 12.328125 28.632812 L 12.328125 33.289062 L 8.832031 36.785156 L 8.832031 48.429688 C 8.832031 49.714844 7.789062 50.757812 6.503906 50.757812 C 5.21875 50.757812 4.175781 49.714844 4.175781 48.429688 L 4.175781 36.785156 L 0.679688 33.289062 L 0.679688 28.632812 L 4.175781 25.136719 "/>
</g>
<path style=" stroke:none;fill-rule:nonzero;fill:rgb(94.119263%,35.289001%,16.079712%);fill-opacity:1;" d="M 69.394531 49.59375 L 64.734375 49.59375 L 64.734375 37.949219 L 69.394531 37.949219 L 69.394531 49.59375 "/>
<path style=" stroke:none;fill-rule:nonzero;fill:rgb(20.779419%,28.62854%,36.859131%);fill-opacity:1;" d="M 71.722656 34.453125 C 71.722656 37.027344 69.636719 39.113281 67.0625 39.113281 C 64.492188 39.113281 62.40625 37.027344 62.40625 34.453125 C 62.40625 31.882812 64.492188 29.796875 67.0625 29.796875 C 69.636719 29.796875 71.722656 31.882812 71.722656 34.453125 "/>
<g clip-path="url(#clip4)" clip-rule="nonzero">
<path style=" stroke:none;fill-rule:nonzero;fill:rgb(65.489197%,86.268616%,97.648621%);fill-opacity:1;" d="M 74.050781 35.621094 L 60.078125 35.621094 L 60.078125 33.289062 L 74.050781 33.289062 L 74.050781 35.621094 "/>
</g>
<path style=" stroke:none;fill-rule:nonzero;fill:rgb(20.779419%,28.62854%,36.859131%);fill-opacity:1;" d="M 66.242188 63.230469 C 65.398438 62.386719 64.933594 61.265625 64.933594 60.078125 C 64.933594 58.886719 65.398438 57.765625 66.242188 56.921875 C 66.644531 56.519531 66.863281 55.988281 66.863281 55.417969 C 66.863281 54.847656 66.644531 54.316406 66.242188 53.914062 C 66.023438 53.695312 65.898438 53.398438 65.898438 53.089844 L 65.898438 49.59375 L 68.230469 49.59375 L 68.230469 52.648438 C 68.855469 53.433594 69.195312 54.398438 69.195312 55.417969 C 69.195312 56.609375 68.730469 57.726562 67.886719 58.570312 C 67.484375 58.972656 67.265625 59.507812 67.265625 60.078125 C 67.265625 60.644531 67.484375 61.179688 67.886719 61.582031 L 66.242188 63.230469 "/>
<g clip-path="url(#clip5)" clip-rule="nonzero">
<path style=" stroke:none;fill-rule:nonzero;fill:rgb(98.81897%,90.979004%,16.859436%);fill-opacity:1;" d="M 37.949219 3.011719 L 35.621094 3.011719 L 35.621094 0.679688 L 37.949219 0.679688 L 37.949219 3.011719 "/>
</g>
<path style=" stroke:none;fill-rule:nonzero;fill:rgb(98.81897%,90.979004%,16.859436%);fill-opacity:1;" d="M 31.019531 5.878906 L 29.371094 4.234375 L 31.019531 2.585938 L 32.667969 4.234375 L 31.019531 5.878906 "/>
<path style=" stroke:none;fill-rule:nonzero;fill:rgb(98.81897%,90.979004%,16.859436%);fill-opacity:1;" d="M 29.796875 11.164062 L 27.46875 11.164062 L 27.46875 8.832031 L 29.796875 8.832031 L 29.796875 11.164062 "/>
<path style=" stroke:none;fill-rule:nonzero;fill:rgb(98.81897%,90.979004%,16.859436%);fill-opacity:1;" d="M 42.546875 5.878906 L 40.902344 4.234375 L 42.546875 2.585938 L 44.195312 4.234375 L 42.546875 5.878906 "/>
<path style=" stroke:none;fill-rule:nonzero;fill:rgb(98.81897%,90.979004%,16.859436%);fill-opacity:1;" d="M 46.101562 11.164062 L 43.773438 11.164062 L 43.773438 8.832031 L 46.101562 8.832031 L 46.101562 11.164062 "/>
<path style=" stroke:none;fill-rule:nonzero;fill:rgb(82.348633%,91.369629%,96.859741%);fill-opacity:1;" d="M 36.785156 47.265625 L 32.125 41.441406 L 34.453125 39.113281 L 39.113281 39.113281 L 41.441406 41.441406 L 36.785156 47.265625 "/>
<path style=" stroke:none;fill-rule:nonzero;fill:rgb(82.348633%,91.369629%,96.859741%);fill-opacity:1;" d="M 34.453125 69.394531 L 36.785156 69.394531 L 36.785156 58.910156 L 32.125 58.910156 L 32.125 67.0625 C 32.125 68.351562 33.167969 69.394531 34.453125 69.394531 "/>
<path style=" stroke:none;fill-rule:nonzero;fill:rgb(65.489197%,86.268616%,97.648621%);fill-opacity:1;" d="M 39.113281 69.394531 L 36.785156 69.394531 L 36.785156 58.910156 L 41.441406 58.910156 L 41.441406 67.0625 C 41.441406 68.351562 40.398438 69.394531 39.113281 69.394531 "/>
<path style=" stroke:none;fill-rule:nonzero;fill:rgb(3.138733%,74.899292%,96.859741%);fill-opacity:1;" d="M 46.101562 33.289062 C 48.671875 33.289062 50.757812 35.375 50.757812 37.949219 L 50.757812 51.925781 C 50.757812 53.210938 49.714844 54.253906 48.429688 54.253906 L 46.101562 54.253906 L 46.101562 33.289062 "/>
<path style=" stroke:none;fill-rule:nonzero;fill:rgb(3.138733%,74.899292%,96.859741%);fill-opacity:1;" d="M 27.46875 33.289062 C 24.894531 33.289062 22.808594 35.375 22.808594 37.949219 L 22.808594 51.925781 C 22.808594 53.210938 23.851562 54.253906 25.136719 54.253906 L 27.46875 54.253906 L 27.46875 33.289062 "/>
<path style=" stroke:none;fill-rule:nonzero;fill:rgb(89.7995%,27.839661%,15.689087%);fill-opacity:1;" d="M 33.289062 30.960938 L 30.960938 30.960938 L 30.960938 28.632812 L 33.289062 28.632812 L 33.289062 30.960938 "/>
<path style=" stroke:none;fill-rule:nonzero;fill:rgb(89.7995%,27.839661%,15.689087%);fill-opacity:1;" d="M 42.605469 30.960938 L 40.277344 30.960938 L 40.277344 28.632812 L 42.605469 28.632812 L 42.605469 30.960938 "/>
</g>
</svg>
